<svg id="Layer_1" data-name="Layer 1" xmlns="http://www.w3.org/2000/svg" viewBox="0 0 600 91.5"><defs><style>.cls-1{fill:#fff;}</style></defs><path class="cls-1" d="M0,30.5a24,24,0,0,1,.6-5.73,9.35,9.35,0,0,1,2-4.05A8.49,8.49,0,0,1,6.45,18.3a18.82,18.82,0,0,1,5.92-.8h18a17.14,17.14,0,0,1,5.3.7A8.86,8.86,0,0,1,39,20.07a6.45,6.45,0,0,1,1.75,2.75,11.06,11.06,0,0,1,.5,3.31v3H37.11V27.52a7.59,7.59,0,0,0-.65-3.45,4.33,4.33,0,0,0-1.72-1.84,6.53,6.53,0,0,0-2.52-.75c-1-.09-2-.14-3.07-.14H12.85a15.12,15.12,0,0,0-3.16.31A6.42,6.42,0,0,0,7.1,22.78,5.48,5.48,0,0,0,5.35,25a8.91,8.91,0,0,0-.65,3.69v13a8.87,8.87,0,0,0,.65,3.69A5.58,5.58,0,0,0,7.1,47.71a6.4,6.4,0,0,0,2.59,1.12,15.11,15.11,0,0,0,3.16.32H29.29a22.77,22.77,0,0,0,3.94-.29,5.84,5.84,0,0,0,2.51-1A3.7,3.7,0,0,0,37.06,46a9.3,9.3,0,0,0,.38-2.93V41h4.41V43.3a17.53,17.53,0,0,1-.45,4.17,6.19,6.19,0,0,1-1.75,3,8.33,8.33,0,0,1-3.6,1.85,23.55,23.55,0,0,1-5.94.62H12.37a18.85,18.85,0,0,1-5.92-.79,8.57,8.57,0,0,1-3.81-2.42,9.46,9.46,0,0,1-2-4.05A24.12,24.12,0,0,1,0,40Z" transform="translate(0 0)"/><path class="cls-1" d="M48.52,30.5a24,24,0,0,1,.6-5.73,9.45,9.45,0,0,1,2-4.05A8.47,8.47,0,0,1,55,18.3a18.82,18.82,0,0,1,5.92-.8h20a18.66,18.66,0,0,1,5.87.8,8.49,8.49,0,0,1,3.81,2.42,9.49,9.49,0,0,1,2.06,4.05,22.9,22.9,0,0,1,.63,5.73V40a23,23,0,0,1-.63,5.73,9.6,9.6,0,0,1-2.06,4.05,8.57,8.57,0,0,1-3.81,2.42,18.68,18.68,0,0,1-5.87.79h-20A18.85,18.85,0,0,1,55,52.19a8.55,8.55,0,0,1-3.82-2.42,9.56,9.56,0,0,1-2-4.05,24.12,24.12,0,0,1-.6-5.73Zm40-1.78A9.07,9.07,0,0,0,87.9,25a5.48,5.48,0,0,0-1.75-2.25,6.48,6.48,0,0,0-2.59-1.13,15.19,15.19,0,0,0-3.16-.31h-19a15.29,15.29,0,0,0-3.17.31,6.54,6.54,0,0,0-2.59,1.13A5.65,5.65,0,0,0,53.86,25a9.08,9.08,0,0,0-.64,3.69v13a9.05,9.05,0,0,0,.64,3.69,5.75,5.75,0,0,0,1.75,2.26,6.53,6.53,0,0,0,2.59,1.12,15.27,15.27,0,0,0,3.17.32h19a15.18,15.18,0,0,0,3.16-.32,6.46,6.46,0,0,0,2.59-1.12,5.58,5.58,0,0,0,1.75-2.26,9,9,0,0,0,.65-3.69Z" transform="translate(0 0)"/><path class="cls-1" d="M101.25,17.89h7.34L128.87,47l20.28-29.1h7.33V52.6h-4.7V22.11h-.09L130.55,52.6h-3.36L106.05,22.11H106V52.6h-4.7Z" transform="translate(0 0)"/><path class="cls-1" d="M165.4,17.89H194a24.43,24.43,0,0,1,4.22.33,6.74,6.74,0,0,1,3.12,1.35,6.38,6.38,0,0,1,1.92,2.87,15,15,0,0,1,.67,4.89,41.64,41.64,0,0,1-.27,5.06A7.46,7.46,0,0,1,202.29,36a6.35,6.35,0,0,1-3.24,2.18,19.61,19.61,0,0,1-6,.72h-23V52.6h-4.7Zm33.8,9a6.85,6.85,0,0,0-.41-2.54,3.47,3.47,0,0,0-1.22-1.58,5,5,0,0,0-2-.79,14.64,14.64,0,0,0-2.71-.22H170.1V35.1h23.15a7.55,7.55,0,0,0,4.39-1.1,4.39,4.39,0,0,0,1.56-3.84Z" transform="translate(0 0)"/><path class="cls-1" d="M224.51,17.89h5.85L251,52.6h-5.32l-4.31-7.34H213.53l-4.31,7.34H203.9Zm2.92,3.83L215.78,41.43h23.3Z" transform="translate(0 0)"/><path class="cls-1" d="M256,17.89h7l31.78,30.49V17.89h4.7V52.6h-7L260.71,22.11V52.6H256Z" transform="translate(0 0)"/><path class="cls-1" d="M595,0H321.7c-5,0-5,5-5,5V64.62c0,5,5,5,5,5h62.1a2.11,2.11,0,0,1,2.11,2.1V89.39a2.1,2.1,0,0,0,3.23,1.78L422.63,69.9a2.15,2.15,0,0,1,1.13-.32H595c5,0,5-5,5-5V5C600,0,595,0,595,0ZM359.61,37.74V52.41h-4.7V37.74L335,17.7h6.33l15.91,16.1,15.92-16.1h6.33Zm69.18,2.06a23.39,23.39,0,0,1-.62,5.72,9.7,9.7,0,0,1-2.06,4.06A8.66,8.66,0,0,1,422.3,52a19,19,0,0,1-5.88.79h-20a19.19,19.19,0,0,1-5.92-.79,8.66,8.66,0,0,1-3.81-2.42,9.45,9.45,0,0,1-2-4.06,24,24,0,0,1-.6-5.72V30.3a24,24,0,0,1,.6-5.72,9.45,9.45,0,0,1,2-4.06,8.66,8.66,0,0,1,3.81-2.42,19.19,19.19,0,0,1,5.92-.79h20a19,19,0,0,1,5.88.79,8.66,8.66,0,0,1,3.81,2.42,9.7,9.7,0,0,1,2.06,4.06,23.39,23.39,0,0,1,.62,5.72Zm49,3.88a12.05,12.05,0,0,1-.7,4.39,6.12,6.12,0,0,1-2.18,2.8,9.62,9.62,0,0,1-3.84,1.49,31.54,31.54,0,0,1-5.65.43h-16a31.54,31.54,0,0,1-5.65-.43A9.62,9.62,0,0,1,440,50.87a6.12,6.12,0,0,1-2.18-2.8,12.07,12.07,0,0,1-.69-4.39v-26h4.69V43.63a8.36,8.36,0,0,0,.29,2.26,3.26,3.26,0,0,0,1.1,1.67,5.75,5.75,0,0,0,2.28,1,16.73,16.73,0,0,0,3.86.36h16.3a16.73,16.73,0,0,0,3.86-.36,5.75,5.75,0,0,0,2.28-1,3.26,3.26,0,0,0,1.1-1.67,8.36,8.36,0,0,0,.29-2.26V17.7h4.7Zm52.4,8.73h-7l-31.79-30.5v30.5h-4.7V17.7h7l31.79,30.49V17.7h4.7ZM581.73,40a24.39,24.39,0,0,1-.63,6,9.05,9.05,0,0,1-2,4,8,8,0,0,1-3.62,2.18,19.24,19.24,0,0,1-5.49.67H550.61a19.14,19.14,0,0,1-5.92-.79,8.66,8.66,0,0,1-3.81-2.42,9.45,9.45,0,0,1-2-4.06,24,24,0,0,1-.6-5.72V30.3a24,24,0,0,1,.6-5.72,9.45,9.45,0,0,1,2-4.06,8.66,8.66,0,0,1,3.81-2.42,19.14,19.14,0,0,1,5.92-.79h17.74a30,30,0,0,1,4.65.36,11.63,11.63,0,0,1,4.12,1.42,8.33,8.33,0,0,1,3,2.9,9.06,9.06,0,0,1,1.16,4.86V28.1h-4.41a12.23,12.23,0,0,0-.48-3.84,3.55,3.55,0,0,0-2-2.08,11.72,11.72,0,0,0-4.12-.87q-2.65-.16-7-.16H551.09a15.19,15.19,0,0,0-3.16.31,6.48,6.48,0,0,0-2.59,1.13,5.48,5.48,0,0,0-1.75,2.25,9.07,9.07,0,0,0-.65,3.69v13a9.07,9.07,0,0,0,.65,3.69,5.48,5.48,0,0,0,1.75,2.25,6.48,6.48,0,0,0,2.59,1.13,15.19,15.19,0,0,0,3.16.31h18.36A9.55,9.55,0,0,0,575,47.54q2-1.41,2-5V39H559.24V35.19h22.49Z" transform="translate(0 0)"/><path class="cls-1" d="M421.7,22.59a6.54,6.54,0,0,0-2.59-1.13,15.29,15.29,0,0,0-3.17-.31h-19a15.19,15.19,0,0,0-3.16.31,6.48,6.48,0,0,0-2.59,1.13,5.48,5.48,0,0,0-1.75,2.25,9.07,9.07,0,0,0-.65,3.69v13a9.07,9.07,0,0,0,.65,3.69,5.48,5.48,0,0,0,1.75,2.25,6.48,6.48,0,0,0,2.59,1.13,15.19,15.19,0,0,0,3.16.31h19a15.29,15.29,0,0,0,3.17-.31,6.54,6.54,0,0,0,2.59-1.13,5.65,5.65,0,0,0,1.75-2.25,9.08,9.08,0,0,0,.64-3.69v-13a9.08,9.08,0,0,0-.64-3.69A5.65,5.65,0,0,0,421.7,22.59Z" transform="translate(0 0)"/></svg>